<?xml version="1.0" standalone="no"?>
<!DOCTYPE svg PUBLIC "-//W3C//DTD SVG 20010904//EN"
 "http://www.w3.org/TR/2001/REC-SVG-20010904/DTD/svg10.dtd">
<svg version="1.0" xmlns="http://www.w3.org/2000/svg"
 width="1360.000000pt" height="518.000000pt" viewBox="0 0 1360.000000 518.000000"
 preserveAspectRatio="xMidYMid meet">

<g transform="translate(0.000000,518.000000) scale(0.100000,-0.100000)"
fill="#000000" stroke="none">
<path d="M4022 3080 c-58 -12 -135 -56 -161 -91 -72 -98 -67 -256 12 -337 60
-63 100 -77 212 -77 55 0 119 6 143 13 l42 13 0 139 0 140 -115 0 -115 0 0
-55 0 -55 55 0 55 0 0 -40 0 -40 -65 0 c-40 0 -78 6 -96 16 -79 41 -77 202 3
245 26 14 152 18 216 6 l42 -7 0 59 c0 41 -4 60 -14 64 -28 11 -173 16 -214 7z"/>
<path d="M2542 2828 l3 -253 155 0 c138 0 159 2 190 21 79 46 103 137 55 208
-22 33 -23 39 -11 59 39 61 15 149 -53 194 -32 21 -45 23 -188 23 l-153 0 2
-252z m276 130 c19 -19 14 -56 -8 -68 -11 -6 -48 -10 -83 -8 -60 3 -62 4 -65
31 -6 51 2 57 76 57 39 0 73 -5 80 -12z m26 -210 c8 -13 8 -23 0 -35 -9 -15
-28 -19 -98 -21 l-86 -3 0 41 0 41 86 -3 c70 -2 89 -6 98 -20z"/>
<path d="M3062 2828 l3 -253 60 0 60 0 5 115 5 115 87 -117 88 -118 70 0 c38
0 70 3 70 6 0 4 -30 47 -66 96 -37 49 -65 90 -63 92 2 1 18 12 35 24 33 23 64
84 64 127 0 44 -31 103 -68 132 -36 28 -40 28 -195 31 l-157 3 2 -253z m265
136 c29 -8 48 -55 34 -83 -17 -31 -44 -41 -110 -41 l-61 0 0 65 0 65 58 0 c31
0 67 -3 79 -6z"/>
<path d="M3592 2828 l3 -253 58 -3 57 -3 0 256 0 255 -60 0 -60 0 2 -252z"/>
<path d="M4372 2828 l3 -253 60 0 60 0 3 98 3 97 89 0 89 0 3 -97 3 -98 60 0
60 0 3 253 2 252 -64 0 -65 0 -3 -97 -3 -98 -85 0 -85 0 -3 98 -3 97 -65 0
-64 0 2 -252z"/>
<path d="M4890 3025 l0 -55 75 0 75 0 2 -197 3 -198 57 -3 58 -3 2 198 3 198
73 3 72 3 0 54 0 55 -210 0 -210 0 0 -55z"/>
<path d="M5602 2828 l3 -253 58 -3 57 -3 0 100 0 100 103 3 102 3 3 52 3 52
-103 3 -103 3 -3 42 -3 42 128 3 128 3 3 53 3 52 -191 0 -190 0 2 -252z"/>
<path d="M6060 2908 c0 -147 3 -179 19 -213 41 -87 95 -120 202 -120 67 0 81
3 124 30 81 50 89 78 93 293 l3 182 -60 0 -61 0 0 -160 c0 -188 -7 -212 -69
-231 -32 -9 -44 -9 -74 6 -50 23 -57 53 -57 231 l0 154 -60 0 -60 0 0 -172z"/>
<path d="M6580 3025 l0 -55 75 0 75 0 0 -200 0 -200 60 0 60 0 2 198 3 197 73
3 72 3 0 54 0 55 -210 0 -210 0 0 -55z"/>
<path d="M7080 2907 c0 -166 1 -175 26 -225 38 -76 94 -107 195 -107 67 0 81
4 124 30 81 50 89 78 93 293 l3 182 -60 0 -61 0 0 -160 c0 -184 -8 -211 -65
-230 -27 -9 -44 -9 -71 0 -55 19 -64 51 -64 235 l0 155 -60 0 -60 0 0 -173z"/>
<path d="M7632 2828 l3 -253 57 -3 57 -3 3 121 3 121 90 -120 89 -121 69 0
c82 0 82 -2 2 103 -30 41 -55 78 -55 84 0 6 11 18 25 27 66 43 87 151 43 216
-48 70 -63 75 -234 78 l-154 3 2 -253z m276 126 c18 -12 22 -24 20 -52 -4 -47
-32 -62 -115 -62 l-63 0 0 65 0 65 68 0 c46 0 75 -5 90 -16z"/>
<path d="M8152 2828 l3 -253 188 -3 187 -2 0 60 0 60 -125 0 -125 0 0 40 0 40
100 0 100 0 0 58 0 57 -97 0 -98 0 -3 43 -3 42 125 0 126 0 0 55 0 55 -190 0
-190 0 2 -252z"/>
<path d="M4682 2303 c-13 -23 -102 -224 -102 -229 0 -2 5 -4 11 -4 5 0 17 16
25 35 14 35 15 35 78 35 63 0 64 0 86 -37 13 -21 25 -33 27 -27 5 16 -90 237
-104 241 -7 3 -16 -4 -21 -14z m47 -81 c12 -30 20 -56 18 -59 -3 -2 -27 -3
-55 -1 l-50 3 25 63 c14 35 29 60 33 55 4 -4 17 -32 29 -61z"/>
<path d="M4920 2298 c-105 -71 -47 -239 78 -225 47 5 92 39 92 69 0 25 -17 23
-25 -3 -10 -31 -64 -50 -108 -38 -47 13 -67 42 -67 97 0 48 29 86 74 98 32 8
83 -12 97 -37 11 -22 29 -25 29 -6 0 26 -48 59 -92 64 -34 4 -50 0 -78 -19z"/>
<path d="M5196 2208 c-62 -146 -60 -138 -47 -138 6 0 17 16 25 35 15 35 15 35
81 35 65 0 65 0 82 -35 15 -32 33 -47 33 -27 0 21 -101 237 -112 240 -8 1 -32
-41 -62 -110z m86 29 c34 -83 36 -77 -26 -77 -31 0 -56 2 -56 4 0 12 51 116
57 116 5 0 16 -19 25 -43z"/>
<path d="M5440 2195 l0 -125 43 1 c64 0 109 20 134 58 61 90 -8 191 -132 191
l-45 0 0 -125z m139 78 c49 -37 52 -103 6 -149 -19 -19 -35 -24 -75 -24 l-50
0 0 93 c0 52 3 97 8 101 12 13 83 -1 111 -21z"/>
<path d="M5720 2195 l0 -125 75 0 c60 0 75 3 75 15 0 12 -14 15 -66 15 l-65 0
3 43 3 42 58 3 c76 4 73 22 -4 22 l-60 0 3 43 3 42 63 3 c88 4 78 22 -13 22
l-75 0 0 -125z"/>
<path d="M5954 2307 c-8 -23 0 -232 10 -227 5 3 8 44 7 92 -1 47 2 89 7 92 5
3 27 -39 50 -92 22 -53 46 -97 53 -97 7 0 30 40 51 90 21 49 43 94 48 99 7 7
10 -25 10 -93 0 -65 4 -100 10 -96 6 4 10 57 10 126 0 109 -2 119 -18 119 -14
0 -29 -26 -62 -104 -24 -58 -47 -103 -51 -101 -4 3 -26 50 -49 105 -40 94 -63
120 -76 87z"/>
<path d="M6290 2314 c0 -4 18 -35 39 -69 31 -49 41 -74 43 -116 4 -75 28 -79
28 -4 0 48 5 64 38 113 54 80 55 82 40 82 -7 0 -30 -27 -52 -60 -21 -33 -39
-60 -41 -60 -1 0 -20 27 -41 60 -34 53 -54 73 -54 54z"/>
</g>
</svg>
